<?xml version="1.0" encoding="utf-8"?>
<!-- Generator: Adobe Illustrator 25.4.1, SVG Export Plug-In . SVG Version: 6.00 Build 0)  -->
<svg xmlns="http://www.w3.org/2000/svg" xmlns:xlink="http://www.w3.org/1999/xlink" version="1.1" id="Layer_1" x="0px" y="0px" viewBox="0 0 295.7 216.2" style="enable-background:new 0 0 295.7 216.2;" xml:space="preserve">
<style type="text/css">
	.st0{fill:none;stroke:#000000;stroke-width:3;stroke-miterlimit:10;}
	.st1{enable-background:new    ;}
	.st2{fill:#231F20;}
</style>
<circle class="st0" cx="144.2" cy="108.1" r="106.6"/>
<circle class="st0" cx="144.6" cy="108.2" r="83.5"/>
<circle class="st0" cx="143.1" cy="109.7" r="57.8"/>
<g class="st1">
	<path class="st2" d="M12.7,121.6c9.1,3.8,21.5,7.1,37.5,7.1c8.6,0,18.4-1,18.4-4.3c0-2.6-6.2-3-14.8-3.5   c-31.8-1.8-46.6-6.7-46.6-20.3c0-16,19.2-21.9,41.4-21.9c14.5,0,27.6,2.8,37,6.4l-7.3,15.3c-7.7-2.8-19.1-5-31.1-5   c-9.2,0-17.8,1-17.8,4.3c0,2.3,4.3,2.9,12.1,3.3c27.8,1.4,49.2,4.8,49.2,20.6c0,14.7-17.4,21.8-41.7,21.8c-21.2,0-35-4.5-44.4-8.5   L12.7,121.6z"/>
	<path class="st2" d="M104.7,79.9c10.5-0.7,24.1-1.3,34.1-1.3c37.6,0,47.8,8.3,47.8,19c0,7.3-4.9,11.6-12.1,14   c8.2,2.3,14,6.6,14,14.3c0,11.1-12.1,19.4-49.7,19.4c-10,0-23.6-0.6-34.1-1.2V79.9z M126.9,104.9c3.9,0.1,8.4,0.1,14,0.1   c18.8,0,23.5-1.7,23.5-4.7c0-3.3-5.6-5.3-23.5-5.3c-5.4,0-10.1,0.2-14,0.4V104.9z M126.9,128.7c3.9,0.2,8.6,0.4,14,0.4   c19.7,0,25.4-2.1,25.4-5.3c0-3-4.7-4.7-25.4-4.7c-5.6,0-10.1,0-14,0.1V128.7z"/>
	<path class="st2" d="M202.3,80.8h22.2v27.6l52.6-29.7L288.6,94l-30.2,16.6l31.2,20.1l-12.9,14.7l-37-24.4l-15.2,8.3v14h-22.2V80.8z   "/>
</g>
</svg>
